<svg width="598" height="598" viewBox="0 0 598 598" fill="none" xmlns="http://www.w3.org/2000/svg">
<path d="M582.086 297.688C581.803 297.321 581.406 297.054 580.956 296.929C493.667 275.038 433.961 250.351 390.85 207.184C347.744 164.023 323.12 104.276 301.222 17.0416C301.098 16.5963 300.833 16.201 300.465 15.9163C300.088 15.6248 299.622 15.4655 299.142 15.4655C298.662 15.4655 298.197 15.6248 297.819 15.9163C297.451 16.2007 297.186 16.5955 297.062 17.0403C275.161 104.288 250.463 164.034 207.282 207.194C164.103 250.353 104.331 275.039 17.0434 296.929C16.594 297.054 16.1977 297.321 15.9137 297.688C15.623 298.064 15.4655 298.525 15.4655 299C15.4655 299.475 15.623 299.936 15.9137 300.312C16.1977 300.679 16.5938 300.946 17.0432 301.071C104.331 322.961 164.103 347.647 207.282 390.806C250.462 433.966 275.161 493.711 297.062 580.959C297.186 581.404 297.451 581.799 297.819 582.083C298.197 582.375 298.663 582.534 299.142 582.534C299.621 582.534 300.087 582.375 300.465 582.083C300.834 581.798 301.098 581.403 301.222 580.958C323.12 493.724 347.744 433.977 390.85 390.815C433.96 347.649 493.667 322.962 580.956 301.071C581.406 300.946 581.803 300.679 582.086 300.312C582.377 299.936 582.534 299.475 582.534 299C582.534 298.525 582.377 298.064 582.086 297.688Z" fill="#AE84F7" stroke="#26103D" stroke-width="30.931"/>
<path d="M243.119 359.5C243.39 354.225 243.592 348.002 243.728 340.834C243.998 333.665 244.134 326.225 244.134 318.515C244.134 310.805 244.134 303.501 244.134 296.603V287.676C244.134 280.777 244.134 273.608 244.134 266.169C244.134 258.73 244.066 251.561 243.931 244.662C243.795 237.629 243.592 231.474 243.322 226.199H273.553C273.282 231.474 273.08 237.629 272.944 244.662C272.809 251.561 272.674 258.73 272.539 266.169C272.539 273.608 272.539 280.777 272.539 287.676V296.603C272.539 303.501 272.539 310.805 272.539 318.515C272.674 326.225 272.809 333.665 272.944 340.834C273.08 348.002 273.282 354.225 273.553 359.5H243.119ZM229.931 359.5V355.036L251.032 352.196H265.437L286.132 355.036V359.5H229.931ZM229.931 230.46V226.199H286.538V230.46L265.437 233.503H251.032L229.931 230.46ZM299.726 359.5V355.036L319.61 352.196H334.421L353.899 355.036V359.5H299.726ZM305.61 230.46V226.199H347.203V230.46L328.131 233.503H326.102L305.61 230.46ZM256.713 328.66V314.863H261.177L266.858 307.559L328.537 226.199H336.45L256.713 328.66ZM313.726 359.5L281.872 292.139L299.726 267.183L345.377 359.5H313.726Z" fill="white"/>
</svg>
